{"title":"weeds.s05.dvdrip.xvid-reward","uid":5710725,"size":3176543834,"categoryP":"video","categoryS":"movies","magnet":"?xt=urn:btih:cfa7d9ef2c21d21013876fe9e32c4ab0ba919ec1&amp;dn=weeds.s05.dvdrip.xvid-reward&amp;tr=udp%3A%2F%2Ftracker.openbittorrent.com%3A80&amp;tr=udp%3A%2F%2Fopen.demonii.com%3A1337&amp;tr=udp%3A%2F%2Ftracker.coppersurfer.tk%3A6969&amp;tr=udp%3A%2F%2Fexodus.desync.com%3A6969","seeders":0,"leechers":1,"uploader":null,"files":26,"time":1279883978,"description":"General\nComplete name                    : weeds.s05e01.dvdrip.xvid-reward.avi\nFormat                           : AVI\nFormat/Info                      : Audio Video Interleave\nFile size                        : 233 MiB\nDuration                         : 29mn 5s\nOverall bit rate                 : 1 119 Kbps\nWriting application              : Nandub v1.0rc2\nWriting library                  : Nandub build 1853/release\n\nVideo\nID                               : 0\nFormat                           : MPEG-4 Visual\nFormat profile                   : Advanced Simple@L5\nFormat settings, BVOP            : Yes\nFormat settings, QPel            : No\nFormat settings, GMC             : No warppoints\nFormat settings, Matrix          : Default (H.263)\nMuxing mode                      : Packed bitstream\nCodec ID                         : XVID\nCodec ID/Hint                    : XviD\nDuration                         : 29mn 5s\nBit rate                         : 972 Kbps\nWidth                            : 624 pixels\nHeight                           : 352 pixels\nDisplay aspect ratio             : 16:9\nFrame rate                       : 23.976 fps\nColor space                      : YUV\nChroma subsampling               : 4:2:0\nBit depth                        : 8 bits\nScan type                        : Progressive\nBits/(Pixel*Frame)               : 0.185\nStream size                      : 202 MiB (87%)\nWriting library                  : XviD 1.3.0.dev55\n\nAudio\nID                               : 1\nFormat                           : MPEG Audio\nFormat version                   : Version 1\nFormat profile                   : Layer 3\nMode                             : Joint stereo\nMode extension                   : MS Stereo\nCodec ID                         : 55\nCodec ID/Hint                    : MP3\nDuration                         : 29mn 5s\nBit rate mode                    : Variable\nBit rate                         : 135 Kbps\nChannel(s)                       : 2 channels\nSampling rate                    : 48.0 KHz\nVideo delay                      : 8ms\nStream size                      : 28.0 MiB (12%)\nAlignment                        : Aligned on interleaves\nInterleave, duration             : 24 ms (0.58 video frame)\nInterleave, preload duration     : 136 ms","torrent":{"xt":"urn:btih:cfa7d9ef2c21d21013876fe9e32c4ab0ba919ec1","amp;dn":"weeds.s05.dvdrip.xvid-reward","amp;tr":["udp%3A%2F%2Ftracker.openbittorrent.com%3A80","udp%3A%2F%2Fopen.demonii.com%3A1337","udp%3A%2F%2Ftracker.coppersurfer.tk%3A6969","udp%3A%2F%2Fexodus.desync.com%3A6969"],"infoHash":"cfa7d9ef2c21d21013876fe9e32c4ab0ba919ec1","infoHashBuffer":{"type":"Buffer","data":[207,167,217,239,44,33,210,16,19,135,111,233,227,44,74,176,186,145,158,193]},"announce":[],"urlList":[]}}